<?xml version="1.0" encoding="UTF-8"?>
<svg width="195px" height="85px" viewBox="0 0 195 85" version="1.1" xmlns="http://www.w3.org/2000/svg" xmlns:xlink="http://www.w3.org/1999/xlink">
    <!-- Generator: Sketch 41 (35326) - http://www.bohemiancoding.com/sketch -->
    <title>Group 24</title>
    <desc>Created with Sketch.</desc>
    <defs></defs>
    <g id="WEBSITE" stroke="none" stroke-width="1" fill="none" fill-rule="evenodd">
        <g id="Website_Full-Copy-7" transform="translate(-90.000000, -36.000000)" fill="#2196F3">
            <g id="Group-27">
                <g id="Group-24" transform="translate(90.000000, 36.000000)">
                    <text id="bant" font-family="Roboto-Regular, Roboto" font-size="50" font-weight="normal" line-spacing="56" letter-spacing="1.13636374">
                        <tspan x="94" y="59">bant</tspan>
                    </text>
                    <path d="M65.6877533,68.5057241 C62.245473,75.3652096 53.8759656,78.1432163 46.9939551,74.710286 C40.1119446,71.2775682 37.3235254,62.9339858 40.7658057,56.0745002 C44.2080859,49.2148021 52.5778059,46.4367954 59.4598164,49.8697257 C66.3418269,53.3024435 69.1302461,61.646026 65.6877533,68.5057241 L65.6877533,68.5057241 Z M18.5160399,48.5188661 C11.1701429,44.8547363 8.19387414,35.9495175 11.8679914,28.6280579 C15.5425337,21.3065983 24.4760149,18.341592 31.8216995,22.0055093 C39.1675965,25.6694266 42.1438653,34.5748579 38.469748,41.8963175 C34.7954182,49.2177771 25.8617245,52.1827834 18.5160399,48.5188661 L18.5160399,48.5188661 Z M45.4869083,10.8318578 C47.6809661,6.46095447 53.0149174,4.69083319 57.4006957,6.87787859 C61.786474,9.0651365 63.5633953,14.3814503 61.3693374,18.7523536 C59.175492,23.1232569 53.8415407,24.8933782 49.4555499,22.7061203 C45.0697716,20.5190749 43.2928504,15.2027611 45.4869083,10.8318578 L45.4869083,10.8318578 Z M63.3642832,41.8077052 C58.7456054,39.503785 53.7189285,38.9049613 49.0035634,39.7706845 C49.7137369,36.0447173 49.5192998,32.2590377 48.5175769,28.7068952 C55.4567498,31.1387401 63.2899083,28.107859 66.6663137,21.3809731 C70.327681,14.0869259 67.3618248,5.21485709 60.0420652,1.56475226 C52.7223056,-2.08556507 43.8204868,0.868391224 40.159332,8.16243839 C39.0413718,10.3894337 38.5443354,12.7634787 38.5974602,15.0914113 C37.768287,14.5414625 36.8966138,14.0357135 35.9830782,13.5801145 C23.971116,7.5899646 9.36304669,12.4375044 3.35483431,24.4071792 C-2.65337806,36.3770666 2.21349921,50.9364735 14.2254615,56.9264109 C19.465488,59.5397304 25.1995759,60.0898917 30.4982523,58.8865068 C29.1044677,68.3607994 33.8408702,78.065229 42.9012137,82.584457 C54.1983274,88.2195201 67.9372736,83.6594922 73.5878492,72.3993534 C79.2386373,61.139002 74.6611844,47.4427683 63.3642832,41.8077052 L63.3642832,41.8077052 Z" id="Fill-3-Copy"></path>
                </g>
            </g>
        </g>
    </g>
</svg>